<svg xmlns="http://www.w3.org/2000/svg" xmlns:xlink="http://www.w3.org/1999/xlink" width="168" zoomAndPan="magnify" viewBox="0 0 126 44.999999" height="60" preserveAspectRatio="xMidYMid meet" version="1.0"><defs><g/><clipPath id="5ae7fe62f1"><rect x="0" width="126" y="0" height="39"/></clipPath></defs><rect x="-12.6" width="151.2" fill="#ffffff" y="-4.5" height="53.999999" fill-opacity="1"/><rect x="-12.6" width="151.2" fill="#ffffff" y="-4.5" height="53.999999" fill-opacity="1"/><g transform="matrix(1, 0, 0, 1, 0, 3)"><g clip-path="url(#5ae7fe62f1)"><g fill="#000000" fill-opacity="1"><g transform="translate(0.0000014, 30.932142)"><g><path d="M 5.28125 -0.296875 C 4.5625 -0.929688 4.132812 -1.726562 4 -2.6875 C 3.5625 -5.226562 3.3125 -7.15625 3.25 -8.46875 C 3.09375 -10.863281 3.015625 -12.925781 3.015625 -14.65625 C 3.015625 -16.84375 3.113281 -18.734375 3.3125 -20.328125 C 3.375 -20.960938 3.453125 -21.519531 3.546875 -22 C 3.609375 -22.488281 3.660156 -22.90625 3.703125 -23.25 L 3.90625 -24.59375 C 3.90625 -24.707031 3.925781 -24.894531 3.96875 -25.15625 C 3.925781 -25.175781 3.847656 -25.207031 3.734375 -25.25 C 3.609375 -25.269531 3.507812 -25.316406 3.4375 -25.390625 C 3.375 -25.453125 3.34375 -25.582031 3.34375 -25.78125 C 3.34375 -25.9375 3.375 -26.078125 3.4375 -26.203125 C 3.488281 -26.335938 3.554688 -26.425781 3.640625 -26.46875 C 3.679688 -26.488281 3.84375 -26.566406 4.125 -26.703125 C 4.414062 -26.828125 4.679688 -26.890625 4.921875 -26.890625 L 7.734375 -26.921875 C 8.847656 -26.921875 9.789062 -26.867188 10.5625 -26.765625 C 12.113281 -26.546875 13.46875 -25.820312 14.625 -24.59375 C 15.757812 -23.351562 16.632812 -21.769531 17.25 -19.84375 C 17.84375 -17.894531 18.140625 -15.796875 18.140625 -13.546875 C 18.140625 -9.253906 16.9375 -5.625 14.53125 -2.65625 C 13.738281 -1.695312 12.875 -0.890625 11.9375 -0.234375 C 11 0.421875 9.9375 1.015625 8.75 1.546875 C 8.601562 1.609375 8.410156 1.691406 8.171875 1.796875 C 7.898438 1.910156 7.601562 2.054688 7.28125 2.234375 C 6.800781 2.492188 6.320312 2.65625 5.84375 2.71875 C 5.332031 2.789062 4.859375 2.828125 4.421875 2.828125 L 2.859375 2.828125 C 2.523438 2.828125 2.269531 2.8125 2.09375 2.78125 C 1.789062 2.78125 1.640625 2.507812 1.640625 1.96875 C 1.640625 1.75 1.671875 1.582031 1.734375 1.46875 C 1.804688 1.382812 1.914062 1.3125 2.0625 1.25 C 2.757812 0.9375 3.832031 0.421875 5.28125 -0.296875 Z M 8.234375 -22.625 C 8.210938 -21.945312 8.191406 -21.109375 8.171875 -20.109375 C 8.148438 -19.078125 8.140625 -17.882812 8.140625 -16.53125 C 8.140625 -11.632812 8.429688 -7.367188 9.015625 -3.734375 C 9.585938 -4.210938 10.179688 -5 10.796875 -6.09375 C 11.398438 -7.1875 11.898438 -8.457031 12.296875 -9.90625 C 12.691406 -11.320312 12.890625 -12.742188 12.890625 -14.171875 C 12.890625 -14.453125 12.867188 -14.898438 12.828125 -15.515625 C 12.628906 -17.191406 12.289062 -18.6875 11.8125 -20 C 11.300781 -21.3125 10.726562 -22.363281 10.09375 -23.15625 C 9.46875 -23.9375 8.867188 -24.425781 8.296875 -24.625 C 8.296875 -24.207031 8.273438 -23.539062 8.234375 -22.625 Z M 8.234375 -22.625 "/></g></g></g><g fill="#000000" fill-opacity="1"><g transform="translate(19.777114, 30.932142)"><g><path d="M 10.65625 -22.203125 C 11.53125 -22.117188 12.175781 -22.039062 12.59375 -21.96875 C 12.789062 -21.945312 12.957031 -21.875 13.09375 -21.75 C 13.21875 -21.59375 13.28125 -21.445312 13.28125 -21.3125 C 13.28125 -21.207031 13.238281 -21.109375 13.15625 -21.015625 C 12.84375 -20.671875 12.535156 -20.5 12.234375 -20.5 C 12.015625 -20.476562 11.695312 -20.46875 11.28125 -20.46875 L 9.40625 -20.5 L 9.28125 -20.5 C 8.976562 -20.78125 8.570312 -20.921875 8.0625 -20.921875 C 7.863281 -20.921875 7.671875 -20.910156 7.484375 -20.890625 C 7.265625 -20.867188 7.054688 -20.859375 6.859375 -20.859375 L 6.75 -20.859375 C 6.46875 -20.859375 6.347656 -20.679688 6.390625 -20.328125 C 6.523438 -18.410156 6.703125 -15.703125 6.921875 -12.203125 C 6.941406 -11.984375 6.984375 -11.828125 7.046875 -11.734375 C 7.117188 -11.648438 7.25 -11.609375 7.4375 -11.609375 L 10.265625 -11.609375 L 11.046875 -11.484375 C 11.335938 -11.410156 11.484375 -11.222656 11.484375 -10.921875 C 11.484375 -10.703125 11.4375 -10.5625 11.34375 -10.5 C 11.257812 -10.425781 11.117188 -10.378906 10.921875 -10.359375 L 9.734375 -10.265625 C 9.472656 -10.242188 9.144531 -10.222656 8.75 -10.203125 C 8.363281 -10.179688 7.90625 -10.132812 7.375 -10.0625 C 7.3125 -10.0625 7.25 -10.03125 7.1875 -9.96875 C 7.09375 -9.90625 7.046875 -9.851562 7.046875 -9.8125 C 7.140625 -7.40625 7.25 -5.597656 7.375 -4.390625 C 7.414062 -3.929688 7.679688 -3.410156 8.171875 -2.828125 C 8.367188 -2.535156 8.695312 -2.390625 9.15625 -2.390625 C 9.414062 -2.390625 9.632812 -2.4375 9.8125 -2.53125 C 10 -2.613281 10.257812 -2.65625 10.59375 -2.65625 L 11.25 -2.65625 C 11.40625 -2.65625 11.59375 -2.664062 11.8125 -2.6875 C 12.007812 -2.6875 12.25 -2.675781 12.53125 -2.65625 C 12.832031 -2.632812 13.0625 -2.59375 13.21875 -2.53125 C 13.375 -2.4375 13.453125 -2.257812 13.453125 -2 C 13.453125 -1.820312 13.382812 -1.660156 13.25 -1.515625 C 13.113281 -1.359375 12.9375 -1.257812 12.71875 -1.21875 C 11.5 -1 10.59375 -0.878906 10 -0.859375 C 9.632812 -0.828125 9.066406 -0.8125 8.296875 -0.8125 C 7.242188 -0.8125 6.457031 -0.828125 5.9375 -0.859375 C 5.539062 -0.859375 5.144531 -0.890625 4.75 -0.953125 C 3.789062 -1.148438 3.070312 -1.539062 2.59375 -2.125 C 2.09375 -2.71875 1.796875 -3.550781 1.703125 -4.625 C 1.660156 -5.71875 1.640625 -6.523438 1.640625 -7.046875 C 1.640625 -8.015625 1.671875 -8.96875 1.734375 -9.90625 C 1.867188 -11.914062 2.15625 -14.953125 2.59375 -19.015625 C 2.632812 -19.347656 2.773438 -20.015625 3.015625 -21.015625 C 3.148438 -21.453125 3.425781 -21.707031 3.84375 -21.78125 C 4.738281 -21.925781 5.476562 -22.066406 6.0625 -22.203125 Z M 10.65625 -22.203125 "/></g></g></g><g fill="#000000" fill-opacity="1"><g transform="translate(34.864138, 30.932142)"><g><path d="M 10.359375 -6.6875 C 10.492188 -7.039062 10.582031 -7.304688 10.625 -7.484375 C 10.976562 -8.398438 11.273438 -9.296875 11.515625 -10.171875 C 12.648438 -13.890625 13.585938 -17.054688 14.328125 -19.671875 L 14.625 -20.46875 L 14.890625 -21.09375 C 14.953125 -21.238281 15.03125 -21.347656 15.125 -21.421875 C 15.207031 -21.460938 15.335938 -21.484375 15.515625 -21.484375 L 18.109375 -21.515625 C 18.347656 -21.515625 18.519531 -21.484375 18.625 -21.421875 C 18.738281 -21.347656 18.796875 -21.226562 18.796875 -21.0625 C 18.796875 -20.925781 18.785156 -20.816406 18.765625 -20.734375 L 18.59375 -20.03125 C 18.25 -18.414062 17.941406 -17.21875 17.671875 -16.4375 C 16.710938 -13.332031 15.804688 -10.597656 14.953125 -8.234375 C 14.734375 -7.617188 14.113281 -5.988281 13.09375 -3.34375 L 12.203125 -1.109375 L 12.140625 -0.953125 C 11.941406 -0.316406 11.546875 0 10.953125 0 C 10.796875 0 10.6875 -0.0078125 10.625 -0.03125 C 10.320312 -0.0703125 10.082031 -0.09375 9.90625 -0.09375 C 9.75 -0.09375 9.5 -0.0703125 9.15625 -0.03125 C 8.226562 0.0507812 7.515625 -0.34375 7.015625 -1.21875 C 6.296875 -2.53125 5.796875 -3.644531 5.515625 -4.5625 C 4.921875 -6.3125 4.4375 -7.773438 4.0625 -8.953125 C 3.695312 -10.109375 3.367188 -11.289062 3.078125 -12.5 C 2.796875 -13.613281 2.546875 -14.835938 2.328125 -16.171875 C 2.109375 -17.484375 1.96875 -18.300781 1.90625 -18.625 C 1.8125 -19.28125 1.734375 -19.773438 1.671875 -20.109375 C 1.648438 -20.171875 1.640625 -20.253906 1.640625 -20.359375 C 1.640625 -20.554688 1.679688 -20.710938 1.765625 -20.828125 C 1.859375 -20.929688 1.96875 -20.992188 2.09375 -21.015625 L 2.953125 -21.0625 L 5.546875 -21.015625 C 5.910156 -21.015625 6.171875 -20.8125 6.328125 -20.40625 C 6.785156 -19 7.09375 -18.023438 7.25 -17.484375 L 10.171875 -7.015625 C 10.171875 -6.953125 10.191406 -6.890625 10.234375 -6.828125 C 10.253906 -6.753906 10.265625 -6.707031 10.265625 -6.6875 Z M 10.359375 -6.6875 "/></g></g></g><g fill="#000000" fill-opacity="1"><g transform="translate(55.330011, 30.932142)"><g><path d="M 5.90625 -0.125 L 5.21875 -0.125 C 5.0625 -0.125 4.863281 -0.125 4.625 -0.125 C 4.382812 -0.101562 4.109375 -0.101562 3.796875 -0.125 C 3.410156 -0.125 3.148438 -0.203125 3.015625 -0.359375 C 2.859375 -0.492188 2.757812 -0.742188 2.71875 -1.109375 L 2.125 -7.484375 L 2.0625 -8.296875 C 1.78125 -11.296875 1.640625 -13.734375 1.640625 -15.609375 C 1.640625 -16.328125 1.648438 -16.875 1.671875 -17.25 C 1.710938 -18.039062 1.800781 -19.285156 1.9375 -20.984375 L 2.03125 -22.203125 C 2.03125 -22.359375 2.078125 -22.546875 2.171875 -22.765625 C 2.234375 -23.066406 2.4375 -23.21875 2.78125 -23.21875 L 5.90625 -23.21875 C 6.1875 -23.21875 6.328125 -23.066406 6.328125 -22.765625 C 6.390625 -21.953125 6.46875 -20.738281 6.5625 -19.125 C 6.738281 -16.164062 6.976562 -11.492188 7.28125 -5.109375 L 7.40625 -1.9375 C 7.425781 -1.65625 7.460938 -1.5 7.515625 -1.46875 C 7.535156 -1.425781 7.695312 -1.414062 8 -1.4375 C 8.675781 -1.53125 9.222656 -1.585938 9.640625 -1.609375 L 11.21875 -1.765625 L 11.34375 -1.765625 C 11.539062 -1.765625 11.628906 -1.644531 11.609375 -1.40625 C 11.609375 -1.28125 11.609375 -1.109375 11.609375 -0.890625 C 11.585938 -0.648438 11.5 -0.515625 11.34375 -0.484375 C 11.195312 -0.460938 10.976562 -0.441406 10.6875 -0.421875 C 9.644531 -0.316406 8.050781 -0.175781 5.90625 0 Z M 5.90625 -0.125 "/></g></g></g><g fill="#000000" fill-opacity="1"><g transform="translate(68.613154, 30.932142)"><g><path d="M 7.703125 -0.09375 C 7.378906 -0.03125 7.0625 0 6.75 0 C 5.4375 0 4.359375 -0.65625 3.515625 -1.96875 C 2.523438 -3.5 1.941406 -5.238281 1.765625 -7.1875 C 1.679688 -7.96875 1.640625 -8.863281 1.640625 -9.875 C 1.640625 -12.257812 1.957031 -14.664062 2.59375 -17.09375 C 2.695312 -17.570312 2.867188 -18.0625 3.109375 -18.5625 C 3.347656 -19.039062 3.492188 -19.328125 3.546875 -19.421875 L 3.875 -20.109375 C 4.175781 -20.671875 4.65625 -20.988281 5.3125 -21.0625 L 5.96875 -21.15625 C 6.84375 -21.28125 7.320312 -21.34375 7.40625 -21.34375 L 7.4375 -21.34375 C 7.507812 -21.34375 7.578125 -21.320312 7.640625 -21.28125 C 7.703125 -21.21875 7.757812 -21.175781 7.8125 -21.15625 C 7.851562 -21.132812 7.914062 -21.101562 8 -21.0625 C 8.0625 -20.988281 8.117188 -20.953125 8.171875 -20.953125 C 8.335938 -20.972656 8.664062 -21.019531 9.15625 -21.09375 C 9.613281 -21.132812 10.023438 -21.195312 10.390625 -21.28125 C 10.703125 -21.320312 10.929688 -21.34375 11.078125 -21.34375 C 12.003906 -21.34375 12.804688 -20.941406 13.484375 -20.140625 C 13.941406 -19.640625 14.3125 -19.070312 14.59375 -18.4375 C 14.875 -17.800781 15.125 -17.078125 15.34375 -16.265625 C 15.695312 -14.890625 15.875 -13.488281 15.875 -12.0625 C 15.875 -10.007812 15.535156 -7.789062 14.859375 -5.40625 C 14.640625 -4.550781 14.34375 -3.734375 13.96875 -2.953125 C 13.226562 -1.421875 12.09375 -0.613281 10.5625 -0.53125 C 10.28125 -0.5 10.03125 -0.460938 9.8125 -0.421875 C 9.570312 -0.378906 9.375 -0.347656 9.21875 -0.328125 C 8.582031 -0.242188 8.078125 -0.164062 7.703125 -0.09375 Z M 7.703125 -0.09375 "/></g></g></g><g fill="#000000" fill-opacity="1"><g transform="translate(86.160013, 30.932142)"><g><path d="M 14.359375 -17.015625 L 14.359375 -17.375 L 13.78125 -16.859375 C 13.6875 -16.921875 13.609375 -16.972656 13.546875 -17.015625 C 13.484375 -17.035156 13.425781 -17.070312 13.375 -17.125 C 13.332031 -17.507812 13.289062 -17.800781 13.25 -18 C 13.164062 -18.789062 13.078125 -19.382812 12.984375 -19.78125 C 12.835938 -20.5625 12.367188 -21.269531 11.578125 -21.90625 C 11.492188 -22 11.394531 -22.046875 11.28125 -22.046875 C 11.175781 -22.046875 11.078125 -22 10.984375 -21.90625 C 10.304688 -21.3125 9.707031 -20.492188 9.1875 -19.453125 C 8.019531 -17.085938 7.296875 -14.242188 7.015625 -10.921875 C 6.953125 -10.304688 6.921875 -9.679688 6.921875 -9.046875 C 6.921875 -7.492188 7.117188 -5.960938 7.515625 -4.453125 C 7.710938 -3.773438 7.929688 -3.195312 8.171875 -2.71875 C 8.410156 -2.21875 8.75 -1.78125 9.1875 -1.40625 C 9.332031 -1.300781 9.441406 -1.25 9.515625 -1.25 C 9.617188 -1.25 9.726562 -1.289062 9.84375 -1.375 C 10.820312 -2.070312 11.488281 -3.113281 11.84375 -4.5 C 12.082031 -5.476562 12.460938 -7.140625 12.984375 -9.484375 C 13.003906 -9.546875 13.015625 -9.644531 13.015625 -9.78125 C 12.816406 -9.78125 12.675781 -9.789062 12.59375 -9.8125 L 9.453125 -9.84375 C 9.253906 -9.84375 9.109375 -9.875 9.015625 -9.9375 C 8.910156 -9.976562 8.859375 -10.085938 8.859375 -10.265625 L 8.859375 -10.328125 C 8.859375 -10.640625 9.039062 -10.816406 9.40625 -10.859375 L 10.203125 -10.921875 C 11.097656 -11.023438 11.960938 -11.09375 12.796875 -11.125 C 14.035156 -11.1875 15.257812 -11.21875 16.46875 -11.21875 L 18.921875 -11.28125 C 19.097656 -11.28125 19.226562 -11.257812 19.3125 -11.21875 C 19.40625 -11.175781 19.460938 -11.066406 19.484375 -10.890625 L 19.484375 -10.71875 C 19.484375 -10.394531 19.328125 -10.203125 19.015625 -10.140625 C 18.515625 -10.046875 17.984375 -9.976562 17.421875 -9.9375 C 17.109375 -9.914062 16.644531 -9.90625 16.03125 -9.90625 C 15.90625 -9.90625 15.820312 -9.882812 15.78125 -9.84375 C 15.707031 -9.769531 15.648438 -9.660156 15.609375 -9.515625 C 15.304688 -7.453125 15.066406 -5.921875 14.890625 -4.921875 C 14.648438 -3.671875 14.3125 -2.695312 13.875 -2 C 13.457031 -1.363281 13.019531 -0.875 12.5625 -0.53125 C 12.082031 -0.175781 11.515625 0 10.859375 0 C 9.285156 0 8.101562 -0.0078125 7.3125 -0.03125 C 5.4375 -0.09375 4.015625 -1.117188 3.046875 -3.109375 C 2.109375 -5.054688 1.640625 -7.265625 1.640625 -9.734375 C 1.640625 -10.222656 1.648438 -10.585938 1.671875 -10.828125 C 1.785156 -14.253906 2.539062 -17.359375 3.9375 -20.140625 C 4.394531 -21.097656 5.019531 -21.914062 5.8125 -22.59375 C 6.769531 -23.382812 7.75 -23.789062 8.75 -23.8125 C 9.695312 -23.832031 11.117188 -23.84375 13.015625 -23.84375 C 14.046875 -23.820312 14.847656 -23.484375 15.421875 -22.828125 C 15.960938 -22.148438 16.234375 -21.351562 16.234375 -20.4375 C 16.234375 -20.257812 16.210938 -19.992188 16.171875 -19.640625 C 16.054688 -19.078125 15.804688 -18.46875 15.421875 -17.8125 C 15.328125 -17.632812 15.171875 -17.46875 14.953125 -17.3125 C 14.734375 -17.132812 14.570312 -17.003906 14.46875 -16.921875 Z M 14.359375 -17.015625 "/></g></g></g><g fill="#000000" fill-opacity="1"><g transform="translate(107.281841, 30.932142)"><g><path d="M 1.9375 -12.296875 L 1.796875 -15.609375 L 1.734375 -17.28125 C 1.710938 -17.832031 1.691406 -18.507812 1.671875 -19.3125 C 1.648438 -20.125 1.640625 -21.066406 1.640625 -22.140625 C 1.640625 -22.597656 1.71875 -22.890625 1.875 -23.015625 C 2 -23.128906 2.335938 -23.195312 2.890625 -23.21875 C 3.585938 -23.257812 4.097656 -23.28125 4.421875 -23.28125 C 4.816406 -23.28125 5.113281 -23.257812 5.3125 -23.21875 C 5.945312 -23.082031 6.910156 -23.015625 8.203125 -23.015625 C 9.179688 -23.015625 9.921875 -22.984375 10.421875 -22.921875 C 12.285156 -22.722656 13.742188 -21.738281 14.796875 -19.96875 C 15.597656 -18.613281 16 -17.269531 16 -15.9375 C 16 -15.0625 15.804688 -14.144531 15.421875 -13.1875 C 14.847656 -11.894531 13.796875 -10.898438 12.265625 -10.203125 C 12.046875 -10.109375 11.9375 -10.007812 11.9375 -9.90625 C 11.9375 -9.84375 11.96875 -9.753906 12.03125 -9.640625 L 13.15625 -7.109375 C 13.414062 -6.523438 13.707031 -5.875 14.03125 -5.15625 C 14.34375 -4.425781 14.695312 -3.648438 15.09375 -2.828125 C 15.113281 -2.734375 15.207031 -2.609375 15.375 -2.453125 C 15.53125 -2.304688 15.617188 -2.175781 15.640625 -2.0625 C 15.679688 -1.863281 15.71875 -1.625 15.75 -1.34375 C 15.75 -1.0625 15.75 -0.84375 15.75 -0.6875 C 15.71875 -0.664062 15.679688 -0.644531 15.640625 -0.625 C 15.597656 -0.601562 15.554688 -0.59375 15.515625 -0.59375 C 14.898438 -0.59375 14.453125 -0.601562 14.171875 -0.625 C 13.734375 -0.644531 13.382812 -0.84375 13.125 -1.21875 C 11.957031 -2.851562 10.875 -4.863281 9.875 -7.25 L 9.3125 -8.65625 C 9.269531 -8.71875 9.21875 -8.785156 9.15625 -8.859375 C 9.082031 -8.898438 9.023438 -8.921875 8.984375 -8.921875 C 8.785156 -8.921875 8.546875 -8.921875 8.265625 -8.921875 C 7.960938 -8.898438 7.613281 -8.898438 7.21875 -8.921875 C 7.0625 -8.921875 6.960938 -8.898438 6.921875 -8.859375 C 6.878906 -8.785156 6.859375 -8.675781 6.859375 -8.53125 L 6.890625 -6.6875 C 6.929688 -5.03125 6.953125 -3.816406 6.953125 -3.046875 C 6.953125 -2.566406 6.921875 -2.054688 6.859375 -1.515625 C 6.785156 -0.941406 6.738281 -0.578125 6.71875 -0.421875 C 6.71875 -0.140625 6.566406 0 6.265625 0 L 3.34375 0 C 3.082031 0 2.921875 -0.128906 2.859375 -0.390625 C 2.503906 -1.679688 2.285156 -3.390625 2.203125 -5.515625 C 2.066406 -8.523438 1.976562 -10.785156 1.9375 -12.296875 Z M 1.9375 -12.296875 "/></g></g></g></g></g></svg>